REM DIRINDEX 1\5,1\2\6,1\2\7,1\3\8,1\3\9,1\4\10,1\4\11,1\4\12
REM DIRNAME folder01,folder02,folder03,folder04,folder05,folder06,folder07,folder08,folder09,folder10,folder11,folder12
TITLE ""
FILE "EJE_DB3000_5th_6C_49.mp3" MP3
  TRACK 01 AUDIO
    TITLE "0:"
    INDEX 01 00:00:00
  TRACK 02 AUDIO
    TITLE "10:cjc026_12054"
    INDEX 01 00:00:05
  TRACK 03 AUDIO
    TITLE "0:"
    INDEX 01 00:01:38
  TRACK 04 AUDIO
    TITLE "11:cjc026_12055"
    INDEX 01 00:01:64
  TRACK 05 AUDIO
    TITLE "0:"
    INDEX 01 00:03:47
  TRACK 06 AUDIO
    TITLE "12:cjc026_12056"
    INDEX 01 00:03:72
  TRACK 07 AUDIO
    TITLE "0:"
    INDEX 01 00:05:30
  TRACK 08 AUDIO
    TITLE "10:cjc026_12057"
    INDEX 01 00:05:56
  TRACK 09 AUDIO
    TITLE "0:"
    INDEX 01 00:06:71
  TRACK 10 AUDIO
    TITLE "11:cjc026_12058"
    INDEX 01 00:07:23
  TRACK 11 AUDIO
    TITLE "0:"
    INDEX 01 00:08:68
  TRACK 12 AUDIO
    TITLE "12:cjc026_12059"
    INDEX 01 00:09:18
  TRACK 13 AUDIO
    TITLE "0:"
    INDEX 01 00:10:33
  TRACK 14 AUDIO
    TITLE "10:cjc026_12060"
    INDEX 01 00:10:61
  TRACK 15 AUDIO
    TITLE "0:"
    INDEX 01 00:12:01
  TRACK 16 AUDIO
    TITLE "11:cjc026_12061"
    INDEX 01 00:12:28
  TRACK 17 AUDIO
    TITLE "0:"
    INDEX 01 00:13:73
  TRACK 18 AUDIO
    TITLE "12:cjc026_12062"
    INDEX 01 00:14:23
  TRACK 19 AUDIO
    TITLE "0:"
    INDEX 01 00:15:38
  TRACK 20 AUDIO
    TITLE "10:cjc026_12063"
    INDEX 01 00:15:64
  TRACK 21 AUDIO
    TITLE "0:"
    INDEX 01 00:16:65
  TRACK 22 AUDIO
    TITLE "11:cjc026_12064"
    INDEX 01 00:17:18
  TRACK 23 AUDIO
    TITLE "0:"
    INDEX 01 00:18:25
  TRACK 24 AUDIO
    TITLE "12:cjc026_12065"
    INDEX 01 00:18:50
  TRACK 25 AUDIO
    TITLE "0:"
    INDEX 01 00:19:52
  TRACK 26 AUDIO
    TITLE "10:cjc026_12066"
    INDEX 01 00:20:04
  TRACK 27 AUDIO
    TITLE "0:"
    INDEX 01 00:21:02
  TRACK 28 AUDIO
    TITLE "11:cjc026_12067"
    INDEX 01 00:21:37
  TRACK 29 AUDIO
    TITLE "0:"
    INDEX 01 00:22:25
  TRACK 30 AUDIO
    TITLE "12:cjc026_12068"
    INDEX 01 00:22:54
  TRACK 31 AUDIO
    TITLE "0:"
    INDEX 01 00:23:57
  TRACK 32 AUDIO
    TITLE "10:cjc026_12069"
    INDEX 01 00:24:12
  TRACK 33 AUDIO
    TITLE "0:"
    INDEX 01 00:25:13
  TRACK 34 AUDIO
    TITLE "11:cjc026_12070"
    INDEX 01 00:25:41
  TRACK 35 AUDIO
    TITLE "0:"
    INDEX 01 00:26:42
  TRACK 36 AUDIO
    TITLE "12:cjc026_12071"
    INDEX 01 00:26:67
  TRACK 37 AUDIO
    TITLE "0:"
    INDEX 01 00:27:69
  TRACK 38 AUDIO
    TITLE "10:cjc026_12072"
    INDEX 01 00:28:21
  TRACK 39 AUDIO
    TITLE "0:"
    INDEX 01 00:29:15
  TRACK 40 AUDIO
    TITLE "11:cjc026_12073"
    INDEX 01 00:29:52
  TRACK 41 AUDIO
    TITLE "0:"
    INDEX 01 00:30:54
  TRACK 42 AUDIO
    TITLE "12:cjc026_12074"
    INDEX 01 00:31:04
  TRACK 43 AUDIO
    TITLE "0:"
    INDEX 01 00:32:00
  TRACK 44 AUDIO
    TITLE "10:cjc026_12075"
    INDEX 01 00:32:33
  TRACK 45 AUDIO
    TITLE "0:"
    INDEX 01 00:33:36
  TRACK 46 AUDIO
    TITLE "11:cjc026_12076"
    INDEX 01 00:33:62
  TRACK 47 AUDIO
    TITLE "0:"
    INDEX 01 00:35:10
  TRACK 48 AUDIO
    TITLE "12:cjc026_12077"
    INDEX 01 00:35:35
  TRACK 49 AUDIO
    TITLE "0:"
    INDEX 01 00:36:36
  TRACK 50 AUDIO
    TITLE "10:cjc026_12078"
    INDEX 01 00:36:62
  TRACK 51 AUDIO
    TITLE "0:"
    INDEX 01 00:38:08
  TRACK 52 AUDIO
    TITLE "11:cjc026_12079"
    INDEX 01 00:38:37
  TRACK 53 AUDIO
    TITLE "0:"
    INDEX 01 00:39:35
  TRACK 54 AUDIO
    TITLE "12:cjc026_12080"
    INDEX 01 00:39:60
  TRACK 55 AUDIO
    TITLE "0:"
    INDEX 01 00:41:08
  TRACK 56 AUDIO
    TITLE "10:cjc026_12081"
    INDEX 01 00:41:34
  TRACK 57 AUDIO
    TITLE "0:"
    INDEX 01 00:42:51
  TRACK 58 AUDIO
    TITLE "11:cjc026_12082"
    INDEX 01 00:43:01
  TRACK 59 AUDIO
    TITLE "0:"
    INDEX 01 00:44:20
  TRACK 60 AUDIO
    TITLE "12:cjc026_12083"
    INDEX 01 00:44:46
  TRACK 61 AUDIO
    TITLE "0:"
    INDEX 01 00:45:61
  TRACK 62 AUDIO
    TITLE "10:cjc026_12084"
    INDEX 01 00:46:11
  TRACK 63 AUDIO
    TITLE "0:"
    INDEX 01 00:47:32
  TRACK 64 AUDIO
    TITLE "11:cjc026_12085"
    INDEX 01 00:47:58
  TRACK 65 AUDIO
    TITLE "0:"
    INDEX 01 00:48:67
  TRACK 66 AUDIO
    TITLE "12:cjc026_12086"
    INDEX 01 00:49:20
  TRACK 67 AUDIO
    TITLE "0:"
    INDEX 01 00:50:39
  TRACK 68 AUDIO
    TITLE "10:cjc026_12087"
    INDEX 01 00:50:64
  TRACK 69 AUDIO
    TITLE "0:"
    INDEX 01 00:51:65
  TRACK 70 AUDIO
    TITLE "11:cjc026_12088"
    INDEX 01 00:52:18
  TRACK 71 AUDIO
    TITLE "0:"
    INDEX 01 00:53:39
  TRACK 72 AUDIO
    TITLE "12:cjc026_12089"
    INDEX 01 00:53:64
  TRACK 73 AUDIO
    TITLE "0:"
    INDEX 01 00:54:66
  TRACK 74 AUDIO
    TITLE "10:cjc026_12090"
    INDEX 01 00:55:16
  TRACK 75 AUDIO
    TITLE "0:"
    INDEX 01 00:56:22
  TRACK 76 AUDIO
    TITLE "11:cjc026_12091"
    INDEX 01 00:56:49
  TRACK 77 AUDIO
    TITLE "0:"
    INDEX 01 00:57:70
  TRACK 78 AUDIO
    TITLE "12:cjc026_12092"
    INDEX 01 00:58:22
  TRACK 79 AUDIO
    TITLE "0:"
    INDEX 01 00:59:28
